<svg height="23.998" viewBox="0 0 24 23.998" width="24" xmlns="http://www.w3.org/2000/svg"><g transform="translate(0 -.02)"><path d="m22.635 10.246c-.369-.272-.835-.613-.891-.835a2.794 2.794 0 0 1 .356-1.224c.326-.747.662-1.521.288-2.165s-1.223-.748-2.04-.835a2.779 2.779 0 0 1 -1.22-.291 2.778 2.778 0 0 1 -.29-1.224c-.092-.817-.187-1.662-.835-2.04s-1.423-.047-2.17.283a2.8 2.8 0 0 1 -1.225.359c-.225-.061-.564-.522-.835-.891-.473-.639-1.004-1.363-1.773-1.363s-1.3.724-1.774 1.363c-.273.37-.613.835-.835.892a2.862 2.862 0 0 1 -1.225-.359c-.752-.331-1.526-.661-2.166-.289s-.751 1.223-.842 2.045a2.792 2.792 0 0 1 -.29 1.22 2.787 2.787 0 0 1 -1.216.286c-.818.092-1.664.187-2.041.835s-.046 1.422.284 2.17a2.792 2.792 0 0 1 .359 1.228c-.061.225-.522.566-.891.835-.639.47-1.363 1-1.363 1.774s.724 1.3 1.364 1.774c.369.272.835.613.891.835a2.794 2.794 0 0 1 -.355 1.223c-.326.747-.662 1.521-.288 2.165s1.223.748 2.04.835a2.779 2.779 0 0 1 1.22.291 2.778 2.778 0 0 1 .29 1.224c.092.817.187 1.662.835 2.04s1.417.038 2.165-.288a2.865 2.865 0 0 1 1.233-.355c.225.061.564.522.835.891.471.639 1 1.363 1.774 1.363s1.3-.724 1.774-1.363c.273-.37.613-.835.835-.892a2.817 2.817 0 0 1 1.225.359c.747.326 1.521.659 2.164.289s.749-1.223.841-2.041a2.792 2.792 0 0 1 .29-1.22 2.788 2.788 0 0 1 1.219-.289c.818-.092 1.664-.187 2.041-.835s.037-1.417-.288-2.165a2.792 2.792 0 0 1 -.355-1.233c.061-.225.522-.566.891-.835.639-.471 1.364-1 1.364-1.774s-.73-1.304-1.37-1.773z" fill="#ffc107"/><g fill="#fafafa"><path d="m109.717 196.379a.436.436 0 0 1 -.349-.174l-1.83-2.44v2.179a.436.436 0 1 1 -.872 0v-3.486a.436.436 0 0 1 .784-.261l1.83 2.44v-2.179a.436.436 0 1 1 .872 0v3.486a.436.436 0 0 1 -.3.413.43.43 0 0 1 -.135.022z" transform="translate(-100.112 -182.181)"/><path d="m215.512 196.379h-1.743a.436.436 0 0 1 -.436-.436v-3.486a.436.436 0 0 1 .436-.436h1.743a.436.436 0 0 1 0 .872h-1.312v2.615h1.307a.436.436 0 1 1 0 .872z" transform="translate(-202.421 -182.181)"/><path d="m215.512 235.559h-1.743a.436.436 0 0 1 0-.872h1.743a.436.436 0 0 1 0 .872z" transform="translate(-202.421 -223.103)"/><path d="m301.718 196.37a.436.436 0 0 1 -.414-.3l-.458-1.375-.458 1.375a.417.417 0 0 1 -.431.3.436.436 0 0 1 -.406-.329l-.872-3.486a.436.436 0 0 1 .846-.211l.508 2.034.4-1.195a.454.454 0 0 1 .827 0l.4 1.195.508-2.034a.436.436 0 0 1 .846.211l-.872 3.486a.436.436 0 0 1 -.406.329z" transform="translate(-284.269 -182.172)"/></g></g></svg>